<?xml version="1.0" encoding="utf-8"?>
<!-- Generator: Adobe Illustrator 15.0.2, SVG Export Plug-In  -->
<!DOCTYPE svg PUBLIC "-//W3C//DTD SVG 1.1//EN" "http://www.w3.org/Graphics/SVG/1.1/DTD/svg11.dtd" [
	<!ENTITY ns_flows "http://ns.adobe.com/Flows/1.0/">
]>
<svg version="1.1"
	 xmlns="http://www.w3.org/2000/svg" xmlns:xlink="http://www.w3.org/1999/xlink" xmlns:a="http://ns.adobe.com/AdobeSVGViewerExtensions/3.0/"
	 x="0px" y="0px" width="68px" height="78px" viewBox="0 0 68 78" overflow="visible" enable-background="new 0 0 68 78"
	 xml:space="preserve">
<defs>
</defs>
<polygon points="34.001,0 0,19.5 0,58.5 34.001,78 68,58.5 68,19.5 "/>
<path id="time-5-icon_1_" fill="#FFFFFF" d="M23.036,38.693c-0.019,0.694,0.026,1.383,0.138,2.078l-2.987,0.768
	c-0.171-0.94-0.246-1.885-0.225-2.845H23.036z M22.093,46.455l2.511-1.785c-0.364-0.603-0.671-1.244-0.915-1.916L20.7,43.522
	C21.052,44.559,21.522,45.542,22.093,46.455z M27.396,47.771c-0.571-0.432-1.099-0.919-1.574-1.453l-2.518,1.79
	c0.745,0.876,1.595,1.661,2.532,2.333L27.396,47.771z M34.028,24.929c-3.84,0-7.593,1.538-10.132,4.032l-2.422-2.422l-1.573,8.618
	l8.619-1.573l-2.45-2.449c1.983-1.938,4.968-3.132,7.958-3.132c6.073,0,10.997,4.923,10.997,10.997s-4.923,10.997-10.997,10.997
	c-1.757,0-3.418-0.413-4.891-1.146l-1.554,2.66c1.931,0.996,4.122,1.56,6.445,1.56c7.771,0,14.071-6.3,14.071-14.071
	S41.799,24.929,34.028,24.929z M41.111,39.008h-6.178v-6.916h-2.767v9.682h8.945V39.008z"/>
</svg>
